<svg width="18" height="18" viewBox="0 0 18 18" fill="none" xmlns="http://www.w3.org/2000/svg">
<path d="M9.00012 16.8665C13.1423 16.8665 16.5001 13.427 16.5001 9.18423C16.5001 4.94143 13.1423 1.50195 9.00012 1.50195C4.85799 1.50195 1.50012 4.94143 1.50012 9.18423C1.50012 13.427 4.85799 16.8665 9.00012 16.8665Z" fill="white" fill-opacity="0.2"/>
<path d="M6.8175 6.75C6.99383 6.24875 7.34186 5.82608 7.79997 5.55685C8.25807 5.28762 8.79667 5.1892 9.32038 5.27903C9.84409 5.36886 10.3191 5.64114 10.6613 6.04765C11.0035 6.45415 11.1908 6.96864 11.19 7.5C11.19 9 8.94 9.75 8.94 9.75M9 12.75H9.0075M16.5 9C16.5 13.1421 13.1421 16.5 9 16.5C4.85786 16.5 1.5 13.1421 1.5 9C1.5 4.85786 4.85786 1.5 9 1.5C13.1421 1.5 16.5 4.85786 16.5 9Z" stroke="white" stroke-linecap="round" stroke-linejoin="round"/>
</svg>
