<svg width="32" height="32" viewBox="0 0 32 32" fill="none" xmlns="http://www.w3.org/2000/svg">
<path fill-rule="evenodd" clip-rule="evenodd" d="M25.9354 21.4008C25.8552 20.9584 25.9094 20.5022 26.0909 20.0909C26.2638 19.6876 26.5508 19.3436 26.9166 19.1013C27.2825 18.859 27.7112 18.729 28.15 18.7273H28.2727C28.996 18.7273 29.6897 18.4399 30.2012 17.9285C30.7127 17.417 31 16.7233 31 16C31 15.2767 30.7127 14.583 30.2012 14.0715C29.6897 13.5601 28.996 13.2727 28.2727 13.2727H28.0409C27.6021 13.271 27.1734 13.141 26.8075 12.8987C26.4417 12.6564 26.1547 12.3124 25.9818 11.9091V11.8C25.8003 11.3887 25.7462 10.9325 25.8264 10.4901C25.9066 10.0477 26.1175 9.63956 26.4318 9.31818L26.5136 9.23636C26.7672 8.98307 26.9684 8.68229 27.1056 8.3512C27.2429 8.02012 27.3135 7.66522 27.3135 7.30682C27.3135 6.94841 27.2429 6.59352 27.1056 6.26244C26.9684 5.93135 26.7672 5.63056 26.5136 5.37727C26.2603 5.1237 25.9596 4.92254 25.6285 4.78529C25.2974 4.64804 24.9425 4.5774 24.5841 4.5774C24.2257 4.5774 23.8708 4.64804 23.5397 4.78529C23.2086 4.92254 22.9078 5.1237 22.6545 5.37727L22.5727 5.45909C22.2513 5.77346 21.8432 5.98434 21.4008 6.06455C20.9584 6.14476 20.5022 6.09061 20.0909 5.90909C19.6876 5.73623 19.3436 5.44921 19.1013 5.08336C18.859 4.71751 18.729 4.2888 18.7273 3.85V3.72727C18.7273 3.00396 18.4399 2.31026 17.9285 1.7988C17.417 1.28734 16.7233 1 16 1C15.2767 1 14.583 1.28734 14.0715 1.7988C13.5601 2.31026 13.2727 3.00396 13.2727 3.72727V3.95909C13.271 4.39789 13.141 4.8266 12.8987 5.19245C12.6564 5.5583 12.3124 5.84532 11.9091 6.01818H11.8C11.3887 6.1997 10.9325 6.25385 10.4901 6.17364C10.0477 6.09343 9.63956 5.88255 9.31818 5.56818L9.23636 5.48636C8.98307 5.23279 8.68229 5.03163 8.3512 4.89438C8.02012 4.75713 7.66522 4.68649 7.30682 4.68649C6.94841 4.68649 6.59352 4.75713 6.26244 4.89438C5.93135 5.03163 5.63056 5.23279 5.37727 5.48636C5.1237 5.73965 4.92254 6.04044 4.78529 6.37153C4.64804 6.70261 4.5774 7.0575 4.5774 7.41591C4.5774 7.77431 4.64804 8.12921 4.78529 8.46029C4.92254 8.79138 5.1237 9.09216 5.37727 9.34545L5.45909 9.42727C5.77346 9.74865 5.98434 10.1568 6.06455 10.5992C6.14476 11.0416 6.09061 11.4978 5.90909 11.9091C5.75325 12.3328 5.47354 12.6999 5.10632 12.9625C4.7391 13.2252 4.30136 13.3713 3.85 13.3818H3.72727C3.00396 13.3818 2.31026 13.6692 1.7988 14.1806C1.28734 14.6921 1 15.3858 1 16.1091C1 16.8324 1.28734 17.5261 1.7988 18.0376C2.31026 18.549 3.00396 18.8364 3.72727 18.8364H3.95909C4.39789 18.8381 4.8266 18.9681 5.19245 19.2104C5.5583 19.4527 5.84532 19.7967 6.01818 20.2C6.1997 20.6113 6.25385 21.0675 6.17364 21.5099C6.09343 21.9523 5.88255 22.3604 5.56818 22.6818L5.48636 22.7636C5.23279 23.0169 5.03163 23.3177 4.89438 23.6488C4.75713 23.9799 4.68649 24.3348 4.68649 24.6932C4.68649 25.0516 4.75713 25.4065 4.89438 25.7376C5.03163 26.0687 5.23279 26.3694 5.48636 26.6227C5.73965 26.8763 6.04044 27.0775 6.37153 27.2147C6.70261 27.352 7.0575 27.4226 7.41591 27.4226C7.77431 27.4226 8.12921 27.352 8.46029 27.2147C8.79138 27.0775 9.09216 26.8763 9.34545 26.6227L9.42727 26.5409C9.74865 26.2265 10.1568 26.0157 10.5992 25.9354C11.0416 25.8552 11.4978 25.9094 11.9091 26.0909C12.3328 26.2467 12.6999 26.5265 12.9625 26.8937C13.2252 27.2609 13.3713 27.6986 13.3818 28.15V28.2727C13.3818 28.996 13.6692 29.6897 14.1806 30.2012C14.6921 30.7127 15.3858 31 16.1091 31C16.8324 31 17.5261 30.7127 18.0376 30.2012C18.549 29.6897 18.8364 28.996 18.8364 28.2727V28.0409C18.8381 27.6021 18.9681 27.1734 19.2104 26.8075C19.4527 26.4417 19.7967 26.1547 20.2 25.9818C20.6113 25.8003 21.0675 25.7462 21.5099 25.8264C21.9523 25.9066 22.3604 26.1175 22.6818 26.4318L22.7636 26.5136C23.0169 26.7672 23.3177 26.9684 23.6488 27.1056C23.9799 27.2429 24.3348 27.3135 24.6932 27.3135C25.0516 27.3135 25.4065 27.2429 25.7376 27.1056C26.0687 26.9684 26.3694 26.7672 26.6227 26.5136C26.8763 26.2603 27.0775 25.9596 27.2147 25.6285C27.352 25.2974 27.4226 24.9425 27.4226 24.5841C27.4226 24.2257 27.352 23.8708 27.2147 23.5397C27.0775 23.2086 26.8763 22.9078 26.6227 22.6545L26.5409 22.5727C26.2265 22.2513 26.0157 21.8432 25.9354 21.4008ZM20.4999 16.0005C20.4999 18.4858 18.4852 20.5005 15.9999 20.5005C13.5146 20.5005 11.4999 18.4858 11.4999 16.0005C11.4999 13.5152 13.5146 11.5005 15.9999 11.5005C18.4852 11.5005 20.4999 13.5152 20.4999 16.0005Z" fill="white" fill-opacity="0.2"/>
<path d="M26.0909 20.0909L27.0058 20.4947L27.01 20.4848L26.0909 20.0909ZM25.9354 21.4008L24.9515 21.5792L24.9515 21.5792L25.9354 21.4008ZM26.9166 19.1013L27.4688 19.9351L27.4688 19.9351L26.9166 19.1013ZM28.15 18.7273V17.7273L28.146 17.7273L28.15 18.7273ZM30.2012 17.9285L29.4941 17.2214V17.2214L30.2012 17.9285ZM30.2012 14.0715L29.4941 14.7786V14.7786L30.2012 14.0715ZM28.0409 13.2727L28.0369 14.2727H28.0409V13.2727ZM26.8075 12.8987L27.3597 12.0649L27.3597 12.0649L26.8075 12.8987ZM25.9818 11.9091H24.9818C24.9818 12.0445 25.0093 12.1785 25.0627 12.303L25.9818 11.9091ZM25.9818 11.8H26.9818C26.9818 11.661 26.9528 11.5234 26.8967 11.3962L25.9818 11.8ZM25.8264 10.4901L26.8103 10.6685L26.8103 10.6685L25.8264 10.4901ZM26.4318 9.31818L25.7247 8.61104L25.717 8.61892L26.4318 9.31818ZM26.5136 9.23636L25.8069 8.52886L25.8065 8.52927L26.5136 9.23636ZM27.1056 8.3512L26.1818 7.96826L26.1818 7.96826L27.1056 8.3512ZM27.1056 6.26244L26.1818 6.64537L26.1818 6.64538L27.1056 6.26244ZM26.5136 5.37727L25.8061 6.08399L25.8069 6.08477L26.5136 5.37727ZM25.6285 4.78529L26.0114 3.86152L26.0114 3.86152L25.6285 4.78529ZM23.5397 4.78529L23.1568 3.86152L23.1568 3.86152L23.5397 4.78529ZM22.6545 5.37727L23.3617 6.08438L23.362 6.08399L22.6545 5.37727ZM22.5727 5.45909L23.272 6.174L23.2798 6.16619L22.5727 5.45909ZM21.4008 6.06455L21.5792 7.04851L21.4008 6.06455ZM20.0909 5.90909L20.4947 4.99418L20.4848 4.98995L20.0909 5.90909ZM19.1013 5.08336L19.9351 4.53121L19.9351 4.53121L19.1013 5.08336ZM18.7273 3.85H17.7273L17.7273 3.85399L18.7273 3.85ZM17.9285 1.7988L17.2214 2.50591V2.50591L17.9285 1.7988ZM14.0715 1.7988L14.7786 2.50591L14.0715 1.7988ZM13.2727 3.95909L14.2727 3.96308V3.95909H13.2727ZM12.8987 5.19245L12.0649 4.6403L12.0649 4.6403L12.8987 5.19245ZM11.9091 6.01818V7.01818C12.0445 7.01818 12.1785 6.99067 12.303 6.93732L11.9091 6.01818ZM11.8 6.01818V5.01818C11.661 5.01818 11.5234 5.04718 11.3962 5.10332L11.8 6.01818ZM10.4901 6.17364L10.3117 7.1576L10.4901 6.17364ZM9.31818 5.56818L8.61103 6.27533L8.61892 6.28304L9.31818 5.56818ZM9.23636 5.48636L8.52886 6.19308L8.52926 6.19347L9.23636 5.48636ZM5.37727 5.48636L6.08399 6.19386L6.08477 6.19308L5.37727 5.48636ZM4.78529 6.37153L3.86152 5.98859L3.86152 5.98859L4.78529 6.37153ZM4.78529 8.46029L3.86152 8.84323L3.86152 8.84323L4.78529 8.46029ZM5.37727 9.34545L6.08438 8.63835L6.08399 8.63795L5.37727 9.34545ZM5.45909 9.42727L6.174 8.72797L6.1662 8.72017L5.45909 9.42727ZM6.06455 10.5992L7.04851 10.4208V10.4208L6.06455 10.5992ZM5.90909 11.9091L4.99423 11.5053C4.98572 11.5246 4.97783 11.5441 4.97056 11.5639L5.90909 11.9091ZM5.10632 12.9625L4.52457 12.1491H4.52457L5.10632 12.9625ZM3.85 13.3818V14.3818C3.8578 14.3818 3.86559 14.3817 3.87339 14.3815L3.85 13.3818ZM1.7988 14.1806L2.50591 14.8877H2.50591L1.7988 14.1806ZM1.7988 18.0376L2.50591 17.3305L1.7988 18.0376ZM3.95909 18.8364L3.96308 17.8364H3.95909V18.8364ZM5.19245 19.2104L5.7446 18.3767L5.7446 18.3767L5.19245 19.2104ZM6.01818 20.2L5.09899 20.594L5.10332 20.6038L6.01818 20.2ZM6.17364 21.5099L7.1576 21.6883L6.17364 21.5099ZM5.56818 22.6818L6.27532 23.389L6.28305 23.3811L5.56818 22.6818ZM5.48636 22.7636L6.19308 23.4711L6.19346 23.4708L5.48636 22.7636ZM5.48636 26.6227L6.19386 25.916L6.19308 25.9152L5.48636 26.6227ZM6.37153 27.2147L5.98858 28.1385L5.98859 28.1385L6.37153 27.2147ZM8.46029 27.2147L8.84323 28.1385L8.84323 28.1385L8.46029 27.2147ZM9.34545 26.6227L8.63833 25.9156L8.63796 25.916L9.34545 26.6227ZM9.42727 26.5409L8.72797 25.826L8.72015 25.8338L9.42727 26.5409ZM10.5992 25.9354L10.4208 24.9515L10.4208 24.9515L10.5992 25.9354ZM11.9091 26.0909L11.5053 27.0058C11.5246 27.0143 11.5441 27.0222 11.5639 27.0294L11.9091 26.0909ZM13.3818 28.15H14.3818C14.3818 28.1422 14.3817 28.1344 14.3815 28.1266L13.3818 28.15ZM14.1806 30.2012L14.8877 29.4941H14.8877L14.1806 30.2012ZM18.0376 30.2012L17.3305 29.4941H17.3305L18.0376 30.2012ZM18.8364 28.0409L17.8364 28.0369V28.0409H18.8364ZM19.2104 26.8075L18.3767 26.2554L18.3767 26.2554L19.2104 26.8075ZM20.2 25.9818L20.594 26.901L20.6038 26.8967L20.2 25.9818ZM21.5099 25.8264L21.3315 26.8103L21.3315 26.8103L21.5099 25.8264ZM22.6818 26.4318L23.389 25.7247L23.3811 25.717L22.6818 26.4318ZM22.7636 26.5136L23.4711 25.8069L23.4707 25.8065L22.7636 26.5136ZM23.6488 27.1056L24.0317 26.1818L24.0317 26.1818L23.6488 27.1056ZM25.7376 27.1056L25.3546 26.1818L25.3546 26.1818L25.7376 27.1056ZM26.6227 26.5136L25.916 25.8061L25.9152 25.8069L26.6227 26.5136ZM27.2147 25.6285L28.1385 26.0114L28.1385 26.0114L27.2147 25.6285ZM27.2147 23.5397L28.1385 23.1568L28.1385 23.1568L27.2147 23.5397ZM26.6227 22.6545L25.9156 23.3617L25.916 23.362L26.6227 22.6545ZM26.5409 22.5727L25.826 23.272L25.8338 23.2799L26.5409 22.5727ZM25.176 19.6871C24.9138 20.2812 24.8356 20.9403 24.9515 21.5792L26.9194 21.2224C26.8748 20.9766 26.9049 20.7232 27.0058 20.4947L25.176 19.6871ZM26.3645 18.2676C25.836 18.6175 25.4215 19.1144 25.1718 19.697L27.01 20.4848C27.1061 20.2608 27.2655 20.0697 27.4688 19.9351L26.3645 18.2676ZM28.146 17.7273C27.5122 17.7298 26.8929 17.9176 26.3645 18.2676L27.4688 19.9351C27.672 19.8005 27.9102 19.7282 28.154 19.7273L28.146 17.7273ZM28.2727 17.7273H28.15V19.7273H28.2727V17.7273ZM29.4941 17.2214C29.1702 17.5453 28.7308 17.7273 28.2727 17.7273V19.7273C29.2613 19.7273 30.2093 19.3346 30.9083 18.6356L29.4941 17.2214ZM30 16C30 16.4581 29.818 16.8974 29.4941 17.2214L30.9083 18.6356C31.6073 17.9366 32 16.9885 32 16H30ZM29.4941 14.7786C29.818 15.1026 30 15.5419 30 16H32C32 15.0115 31.6073 14.0634 30.9083 13.3644L29.4941 14.7786ZM28.2727 14.2727C28.7308 14.2727 29.1702 14.4547 29.4941 14.7786L30.9083 13.3644C30.2093 12.6654 29.2613 12.2727 28.2727 12.2727V14.2727ZM28.0409 14.2727H28.2727V12.2727H28.0409V14.2727ZM26.2554 13.7324C26.7838 14.0824 27.4031 14.2702 28.0369 14.2727L28.0449 12.2727C27.8011 12.2718 27.5629 12.1995 27.3597 12.0649L26.2554 13.7324ZM25.0627 12.303C25.3124 12.8856 25.7269 13.3825 26.2554 13.7324L27.3597 12.0649C27.1564 11.9303 26.997 11.7392 26.901 11.5152L25.0627 12.303ZM24.9818 11.8V11.9091H26.9818V11.8H24.9818ZM24.8424 10.3117C24.7265 10.9507 24.8048 11.6097 25.067 12.2038L26.8967 11.3962C26.7958 11.1677 26.7658 10.9143 26.8103 10.6685L24.8424 10.3117ZM25.717 8.61892C25.2629 9.08313 24.9583 9.67273 24.8424 10.3117L26.8103 10.6685C26.8549 10.4228 26.972 10.196 27.1467 10.0174L25.717 8.61892ZM25.8065 8.52927L25.7247 8.61109L27.1389 10.0253L27.2208 9.94346L25.8065 8.52927ZM26.1818 7.96826C26.0949 8.17795 25.9675 8.36844 25.8069 8.52886L27.2203 9.94386C27.5669 9.5977 27.8418 9.18663 28.0294 8.73414L26.1818 7.96826ZM26.3135 7.30682C26.3135 7.53381 26.2688 7.75857 26.1818 7.96826L28.0294 8.73414C28.217 8.28166 28.3135 7.79664 28.3135 7.30682H26.3135ZM26.1818 6.64538C26.2688 6.85506 26.3135 7.07983 26.3135 7.30682H28.3135C28.3135 6.817 28.217 6.33198 28.0294 5.87949L26.1818 6.64538ZM25.8069 6.08477C25.9675 6.24519 26.0949 6.43569 26.1818 6.64537L28.0294 5.8795C27.8418 5.42701 27.5669 5.01593 27.2203 4.66977L25.8069 6.08477ZM25.2455 5.70906C25.4552 5.79599 25.6457 5.92339 25.8061 6.08399L27.2211 4.67056C26.875 4.32401 26.4639 4.04909 26.0114 3.86152L25.2455 5.70906ZM24.5841 5.5774C24.8111 5.5774 25.0358 5.62214 25.2455 5.70906L26.0114 3.86152C25.5589 3.67395 25.0739 3.5774 24.5841 3.5774V5.5774ZM23.9226 5.70906C24.1323 5.62214 24.3571 5.5774 24.5841 5.5774V3.5774C24.0943 3.5774 23.6093 3.67395 23.1568 3.86152L23.9226 5.70906ZM23.362 6.08399C23.5225 5.92339 23.713 5.79599 23.9227 5.70906L23.1568 3.86152C22.7043 4.04909 22.2932 4.32401 21.947 4.67056L23.362 6.08399ZM23.2798 6.16619L23.3617 6.08438L21.9474 4.67017L21.8656 4.75199L23.2798 6.16619ZM21.5792 7.04851C22.2182 6.93265 22.8078 6.62804 23.272 6.17395L21.8735 4.74423C21.6949 4.91888 21.4681 5.03604 21.2224 5.0806L21.5792 7.04851ZM19.6871 6.82395C20.2812 7.08615 20.9403 7.16436 21.5792 7.04851L21.2224 5.0806C20.9766 5.12515 20.7232 5.09507 20.4947 4.99423L19.6871 6.82395ZM18.2676 5.63551C18.6176 6.16396 19.1144 6.57855 19.697 6.82823L20.4848 4.98995C20.2608 4.89392 20.0697 4.73446 19.9351 4.53121L18.2676 5.63551ZM17.7273 3.85399C17.7298 4.48781 17.9176 5.10706 18.2676 5.63551L19.9351 4.53121C19.8005 4.32796 19.7282 4.08979 19.7273 3.84601L17.7273 3.85399ZM17.7273 3.72727V3.85H19.7273V3.72727H17.7273ZM17.2214 2.50591C17.5453 2.82983 17.7273 3.26917 17.7273 3.72727H19.7273C19.7273 2.73874 19.3346 1.79069 18.6356 1.09169L17.2214 2.50591ZM16 2C16.4581 2 16.8974 2.18198 17.2214 2.50591L18.6356 1.09169C17.9366 0.392694 16.9885 0 16 0V2ZM14.7786 2.50591C15.1026 2.18198 15.5419 2 16 2V0C15.0115 0 14.0634 0.392694 13.3644 1.09169L14.7786 2.50591ZM14.2727 3.72727C14.2727 3.26917 14.4547 2.82983 14.7786 2.50591L13.3644 1.09169C12.6654 1.79069 12.2727 2.73874 12.2727 3.72727H14.2727ZM14.2727 3.95909V3.72727H12.2727V3.95909H14.2727ZM13.7324 5.7446C14.0824 5.21615 14.2702 4.5969 14.2727 3.96308L12.2727 3.9551C12.2718 4.19888 12.1995 4.43705 12.0649 4.6403L13.7324 5.7446ZM12.303 6.93732C12.8856 6.68764 13.3825 6.27305 13.7324 5.7446L12.0649 4.6403C11.9303 4.84355 11.7392 5.00301 11.5152 5.09904L12.303 6.93732ZM11.8 7.01818H11.9091V5.01818H11.8V7.01818ZM10.3117 7.1576C10.9507 7.27345 11.6097 7.19524 12.2038 6.93304L11.3962 5.10332C11.1677 5.20416 10.9143 5.23425 10.6685 5.18969L10.3117 7.1576ZM8.61892 6.28304C9.08313 6.73713 9.67274 7.04174 10.3117 7.1576L10.6685 5.18969C10.4228 5.14513 10.196 5.02797 10.0174 4.85332L8.61892 6.28304ZM8.52926 6.19347L8.61108 6.27529L10.0253 4.86108L9.94347 4.77926L8.52926 6.19347ZM7.96826 5.81816C8.17795 5.90508 8.36845 6.03248 8.52886 6.19308L9.94386 4.77965C9.5977 4.4331 9.18663 4.15818 8.73414 3.97061L7.96826 5.81816ZM7.30682 5.68649C7.53381 5.68649 7.75857 5.73123 7.96826 5.81816L8.73414 3.97061C8.28166 3.78304 7.79664 3.68649 7.30682 3.68649V5.68649ZM6.64538 5.81816C6.85506 5.73123 7.07983 5.68649 7.30682 5.68649V3.68649C6.817 3.68649 6.33198 3.78304 5.8795 3.97061L6.64538 5.81816ZM6.08477 6.19308C6.24519 6.03248 6.43569 5.90508 6.64538 5.81816L5.8795 3.97061C5.42701 4.15818 5.01594 4.4331 4.66977 4.77965L6.08477 6.19308ZM5.70906 6.75447C5.79599 6.54478 5.92339 6.35428 6.08399 6.19386L4.67056 4.77886C4.32401 5.12503 4.04909 5.5361 3.86152 5.98859L5.70906 6.75447ZM5.5774 7.41591C5.5774 7.18892 5.62214 6.96415 5.70906 6.75447L3.86152 5.98859C3.67395 6.44107 3.5774 6.92609 3.5774 7.41591H5.5774ZM5.70906 8.07735C5.62214 7.86766 5.5774 7.6429 5.5774 7.41591H3.5774C3.5774 7.90573 3.67395 8.39075 3.86152 8.84323L5.70906 8.07735ZM6.08399 8.63795C5.92339 8.47754 5.79599 8.28704 5.70906 8.07735L3.86152 8.84323C4.04909 9.29572 4.32401 9.70679 4.67056 10.053L6.08399 8.63795ZM6.1662 8.72017L6.08438 8.63835L4.67017 10.0526L4.75198 10.1344L6.1662 8.72017ZM7.04851 10.4208C6.93265 9.78183 6.62804 9.19222 6.17395 8.72801L4.74423 10.1265C4.91888 10.3051 5.03604 10.5319 5.0806 10.7776L7.04851 10.4208ZM6.82395 12.3129C7.08615 11.7188 7.16436 11.0597 7.04851 10.4208L5.0806 10.7776C5.12515 11.0234 5.09507 11.2768 4.99423 11.5053L6.82395 12.3129ZM5.68806 13.7759C6.21849 13.3965 6.62252 12.8663 6.84763 12.2543L4.97056 11.5639C4.88398 11.7993 4.72858 12.0032 4.52457 12.1491L5.68806 13.7759ZM3.87339 14.3815C4.52534 14.3663 5.15764 14.1553 5.68806 13.7759L4.52457 12.1491C4.32056 12.2951 4.07737 12.3762 3.82661 12.3821L3.87339 14.3815ZM3.72727 14.3818H3.85V12.3818H3.72727V14.3818ZM2.50591 14.8877C2.82983 14.5638 3.26917 14.3818 3.72727 14.3818V12.3818C2.73874 12.3818 1.79069 12.7745 1.09169 13.4735L2.50591 14.8877ZM2 16.1091C2 15.651 2.18198 15.2117 2.50591 14.8877L1.09169 13.4735C0.392694 14.1725 0 15.1206 0 16.1091H2ZM2.50591 17.3305C2.18198 17.0065 2 16.5672 2 16.1091H0C0 17.0976 0.392694 18.0457 1.09169 18.7447L2.50591 17.3305ZM3.72727 17.8364C3.26917 17.8364 2.82983 17.6544 2.50591 17.3305L1.09169 18.7447C1.79069 19.4437 2.73874 19.8364 3.72727 19.8364V17.8364ZM3.95909 17.8364H3.72727V19.8364H3.95909V17.8364ZM5.7446 18.3767C5.21615 18.0267 4.5969 17.8389 3.96308 17.8364L3.95511 19.8364C4.19888 19.8373 4.43705 19.9096 4.6403 20.0442L5.7446 18.3767ZM6.93732 19.8061C6.68764 19.2235 6.27305 18.7266 5.7446 18.3767L4.6403 20.0442C4.84355 20.1788 5.00301 20.3699 5.09904 20.5939L6.93732 19.8061ZM7.1576 21.6883C7.27345 21.0493 7.19524 20.3903 6.93304 19.7962L5.10332 20.6038C5.20416 20.8323 5.23425 21.0857 5.18969 21.3315L7.1576 21.6883ZM6.28305 23.3811C6.73713 22.9169 7.04174 22.3273 7.1576 21.6883L5.18969 21.3315C5.14513 21.5772 5.02797 21.804 4.85332 21.9826L6.28305 23.3811ZM6.19346 23.4708L6.27528 23.3889L4.86109 21.9747L4.77927 22.0565L6.19346 23.4708ZM5.81816 24.0317C5.90508 23.8221 6.03248 23.6316 6.19308 23.4711L4.77965 22.0561C4.4331 22.4023 4.15818 22.8134 3.97061 23.2659L5.81816 24.0317ZM5.68649 24.6932C5.68649 24.4662 5.73123 24.2414 5.81816 24.0317L3.97061 23.2659C3.78304 23.7183 3.68649 24.2034 3.68649 24.6932H5.68649ZM5.81816 25.3546C5.73123 25.1449 5.68649 24.9202 5.68649 24.6932H3.68649C3.68649 25.183 3.78304 25.668 3.97061 26.1205L5.81816 25.3546ZM6.19308 25.9152C6.03248 25.7548 5.90508 25.5643 5.81816 25.3546L3.97061 26.1205C4.15818 26.573 4.4331 26.9841 4.77965 27.3302L6.19308 25.9152ZM6.75447 26.2909C6.54478 26.204 6.35428 26.0766 6.19386 25.916L4.77887 27.3294C5.12503 27.676 5.5361 27.9509 5.98858 28.1385L6.75447 26.2909ZM7.41591 26.4226C7.18892 26.4226 6.96415 26.3779 6.75446 26.2909L5.98859 28.1385C6.44107 28.3261 6.92609 28.4226 7.41591 28.4226V26.4226ZM8.07735 26.2909C7.86767 26.3779 7.6429 26.4226 7.41591 26.4226V28.4226C7.90573 28.4226 8.39075 28.3261 8.84323 28.1385L8.07735 26.2909ZM8.63796 25.916C8.47754 26.0766 8.28704 26.204 8.07735 26.2909L8.84323 28.1385C9.29572 27.9509 9.70679 27.676 10.053 27.3294L8.63796 25.916ZM8.72015 25.8338L8.63834 25.9156L10.0526 27.3298L10.1344 27.248L8.72015 25.8338ZM10.4208 24.9515C9.78183 25.0673 9.19222 25.372 8.72801 25.826L10.1265 27.2558C10.3051 27.0811 10.5319 26.964 10.7776 26.9194L10.4208 24.9515ZM12.3129 25.176C11.7188 24.9138 11.0597 24.8356 10.4208 24.9515L10.7776 26.9194C11.0234 26.8748 11.2768 26.9049 11.5053 27.0058L12.3129 25.176ZM13.7759 26.3119C13.3965 25.7815 12.8663 25.3775 12.2543 25.1524L11.5639 27.0294C11.7993 27.116 12.0032 27.2714 12.1491 27.4754L13.7759 26.3119ZM14.3815 28.1266C14.3663 27.4747 14.1553 26.8424 13.7759 26.3119L12.1491 27.4754C12.2951 27.6794 12.3762 27.9226 12.3821 28.1734L14.3815 28.1266ZM14.3818 28.2727V28.15H12.3818V28.2727H14.3818ZM14.8877 29.4941C14.5638 29.1702 14.3818 28.7308 14.3818 28.2727H12.3818C12.3818 29.2613 12.7745 30.2093 13.4735 30.9083L14.8877 29.4941ZM16.1091 30C15.651 30 15.2117 29.818 14.8877 29.4941L13.4735 30.9083C14.1725 31.6073 15.1206 32 16.1091 32V30ZM17.3305 29.4941C17.0065 29.818 16.5672 30 16.1091 30V32C17.0976 32 18.0457 31.6073 18.7447 30.9083L17.3305 29.4941ZM17.8364 28.2727C17.8364 28.7308 17.6544 29.1702 17.3305 29.4941L18.7447 30.9083C19.4437 30.2093 19.8364 29.2613 19.8364 28.2727H17.8364ZM17.8364 28.0409V28.2727H19.8364V28.0409H17.8364ZM18.3767 26.2554C18.0267 26.7838 17.8389 27.4031 17.8364 28.0369L19.8364 28.0449C19.8373 27.8011 19.9096 27.5629 20.0442 27.3597L18.3767 26.2554ZM19.8061 25.0627C19.2235 25.3124 18.7266 25.727 18.3767 26.2554L20.0442 27.3597C20.1788 27.1564 20.3699 26.997 20.5939 26.901L19.8061 25.0627ZM21.6883 24.8424C21.0493 24.7265 20.3903 24.8048 19.7962 25.067L20.6038 26.8967C20.8323 26.7958 21.0857 26.7658 21.3315 26.8103L21.6883 24.8424ZM23.3811 25.717C22.9169 25.2629 22.3273 24.9583 21.6883 24.8424L21.3315 26.8103C21.5772 26.8549 21.804 26.972 21.9826 27.1467L23.3811 25.717ZM23.4707 25.8065L23.3889 25.7247L21.9747 27.1389L22.0565 27.2207L23.4707 25.8065ZM24.0317 26.1818C23.8221 26.0949 23.6316 25.9675 23.4711 25.8069L22.0561 27.2203C22.4023 27.5669 22.8134 27.8418 23.2659 28.0294L24.0317 26.1818ZM24.6932 26.3135C24.4662 26.3135 24.2414 26.2688 24.0317 26.1818L23.2659 28.0294C23.7183 28.217 24.2034 28.3135 24.6932 28.3135V26.3135ZM25.3546 26.1818C25.1449 26.2688 24.9202 26.3135 24.6932 26.3135V28.3135C25.183 28.3135 25.668 28.217 26.1205 28.0294L25.3546 26.1818ZM25.9152 25.8069C25.7548 25.9675 25.5643 26.0949 25.3546 26.1818L26.1205 28.0294C26.573 27.8418 26.9841 27.5669 27.3302 27.2204L25.9152 25.8069ZM26.2909 25.2455C26.204 25.4552 26.0766 25.6457 25.916 25.8061L27.3294 27.2211C27.676 26.875 27.9509 26.4639 28.1385 26.0114L26.2909 25.2455ZM26.4226 24.5841C26.4226 24.8111 26.3779 25.0359 26.2909 25.2455L28.1385 26.0114C28.3261 25.5589 28.4226 25.0739 28.4226 24.5841H26.4226ZM26.2909 23.9226C26.3779 24.1323 26.4226 24.3571 26.4226 24.5841H28.4226C28.4226 24.0943 28.3261 23.6093 28.1385 23.1568L26.2909 23.9226ZM25.916 23.362C26.0766 23.5225 26.204 23.713 26.2909 23.9227L28.1385 23.1568C27.9509 22.7043 27.676 22.2932 27.3294 21.947L25.916 23.362ZM25.8338 23.2799L25.9156 23.3617L27.3298 21.9474L27.248 21.8656L25.8338 23.2799ZM24.9515 21.5792C25.0673 22.2182 25.372 22.8078 25.826 23.272L27.2558 21.8735C27.0811 21.6949 26.964 21.4681 26.9194 21.2224L24.9515 21.5792ZM15.9999 21.5005C19.0374 21.5005 21.4999 19.0381 21.4999 16.0005H19.4999C19.4999 17.9335 17.9329 19.5005 15.9999 19.5005V21.5005ZM10.4999 16.0005C10.4999 19.0381 12.9623 21.5005 15.9999 21.5005V19.5005C14.0669 19.5005 12.4999 17.9335 12.4999 16.0005H10.4999ZM15.9999 10.5005C12.9623 10.5005 10.4999 12.9629 10.4999 16.0005H12.4999C12.4999 14.0675 14.0669 12.5005 15.9999 12.5005V10.5005ZM21.4999 16.0005C21.4999 12.9629 19.0374 10.5005 15.9999 10.5005V12.5005C17.9329 12.5005 19.4999 14.0675 19.4999 16.0005H21.4999Z" fill="white"/>
</svg>
