<svg width="18" height="18" viewBox="0 0 18 18" fill="none" xmlns="http://www.w3.org/2000/svg">
<path d="M1 5.26667C1 3.77319 1 3.02646 1.29065 2.45603C1.54631 1.95426 1.95426 1.54631 2.45603 1.29065C3.02646 1 3.77319 1 5.26667 1H12.7333C14.2268 1 14.9735 1 15.544 1.29065C16.0457 1.54631 16.4537 1.95426 16.7094 2.45603C17 3.02646 17 3.77319 17 5.26667V12.7333C17 14.2268 17 14.9735 16.7094 15.544C16.4537 16.0457 16.0457 16.4537 15.544 16.7094C14.9735 17 14.2268 17 12.7333 17H5.26667C3.77319 17 3.02646 17 2.45603 16.7094C1.95426 16.4537 1.54631 16.0457 1.29065 15.544C1 14.9735 1 14.2268 1 12.7333V5.26667Z" fill="white" fill-opacity="0.2" stroke="white" stroke-linecap="round" stroke-linejoin="round"/>
<path d="M11.8579 11.7647C11.2926 11.7647 10.8073 11.6447 10.4019 11.4047C9.99661 11.1593 9.68461 10.8207 9.46594 10.3887C9.24727 9.95132 9.13794 9.44732 9.13794 8.87666C9.13794 8.30599 9.24727 7.80199 9.46594 7.36466C9.68461 6.92732 9.99661 6.58599 10.4019 6.34066C10.8073 6.09532 11.2926 5.97266 11.8579 5.97266C12.5299 5.97266 13.0793 6.14066 13.5059 6.47666C13.9379 6.80732 14.2073 7.27399 14.3139 7.87666H13.1859C13.1166 7.57266 12.9673 7.33532 12.7379 7.16466C12.5139 6.98866 12.2153 6.90066 11.8419 6.90066C11.3246 6.90066 10.9193 7.07666 10.6259 7.42866C10.3326 7.78066 10.1859 8.26332 10.1859 8.87666C10.1859 9.48999 10.3326 9.97266 10.6259 10.3247C10.9193 10.6713 11.3246 10.8447 11.8419 10.8447C12.2153 10.8447 12.5139 10.7647 12.7379 10.6047C12.9673 10.4393 13.1166 10.2127 13.1859 9.92466H14.3139C14.2073 10.5007 13.9379 10.9513 13.5059 11.2767C13.0793 11.602 12.5299 11.7647 11.8579 11.7647Z" fill="white"/>
<path d="M5.9595 11.7647C5.39417 11.7647 4.90884 11.6447 4.5035 11.4047C4.09817 11.1593 3.78617 10.8207 3.5675 10.3887C3.34884 9.95132 3.2395 9.44732 3.2395 8.87666C3.2395 8.30599 3.34884 7.80199 3.5675 7.36466C3.78617 6.92732 4.09817 6.58599 4.5035 6.34066C4.90884 6.09532 5.39417 5.97266 5.9595 5.97266C6.6315 5.97266 7.18084 6.14066 7.6075 6.47666C8.0395 6.80732 8.30884 7.27399 8.4155 7.87666H7.2875C7.21817 7.57266 7.06884 7.33532 6.8395 7.16466C6.6155 6.98866 6.31684 6.90066 5.9435 6.90066C5.42617 6.90066 5.02084 7.07666 4.7275 7.42866C4.43417 7.78066 4.2875 8.26332 4.2875 8.87666C4.2875 9.48999 4.43417 9.97266 4.7275 10.3247C5.02084 10.6713 5.42617 10.8447 5.9435 10.8447C6.31684 10.8447 6.6155 10.7647 6.8395 10.6047C7.06884 10.4393 7.21817 10.2127 7.2875 9.92466H8.4155C8.30884 10.5007 8.0395 10.9513 7.6075 11.2767C7.18084 11.602 6.6315 11.7647 5.9595 11.7647Z" fill="white"/>
</svg>
