<svg width="28" height="28" viewBox="0 0 28 28" fill="none" xmlns="http://www.w3.org/2000/svg">
<path id="Icon" d="M17.75 10.75V5.25C17.75 3.17893 16.0711 1.5 14 1.5C12.528 1.5 11.2541 2.34815 10.6403 3.58242M14 22.75V26.5M14 22.75C9.16751 22.75 5.25 18.8325 5.25 14V11.5M14 22.75C18.8325 22.75 22.75 18.8325 22.75 14V11.5M9 26.5H19M1.5 1.5L26.5 26.5M14 17.75C11.9289 17.75 10.25 16.0711 10.25 14V10.25L16.6533 16.65C15.9745 17.3296 15.0364 17.75 14 17.75Z" stroke="white" stroke-width="2" stroke-linecap="round" stroke-linejoin="round"/>
</svg>
