<svg width="46" height="46" viewBox="0 0 46 46" fill="none" xmlns="http://www.w3.org/2000/svg">
<path d="M0 6C0 2.68629 2.68629 0 6 0H40C43.3137 0 46 2.68629 46 6V40C46 43.3137 43.3137 46 40 46H6C2.68629 46 0 43.3137 0 40V6Z" fill="white" fill-opacity="0.2"/>
<path d="M26 21.4V17C26 15.3431 24.6569 14 23 14C21.8224 14 20.8032 14.6785 20.3122 15.6659M23 31V34M23 31C19.134 31 16 27.866 16 24V22M23 31C26.866 31 30 27.866 30 24V22M19 34H27M13 14L33 34M23 27C21.3431 27 20 25.6569 20 24V21L25.1226 26.12C24.5796 26.6637 23.8291 27 23 27Z" stroke="white" stroke-width="1.75" stroke-linecap="round" stroke-linejoin="round"/>
</svg>
