<svg width="18" height="18" viewBox="0 0 18 18" fill="none" xmlns="http://www.w3.org/2000/svg">
<g id="speedometer-01">
<path id="Icon" d="M9 1.5V3.375M9 1.5C4.85786 1.5 1.5 4.85786 1.5 9M9 1.5C13.1421 1.5 16.5 4.85786 16.5 9M9 14.625V16.5M9 16.5C13.1421 16.5 16.5 13.1421 16.5 9M9 16.5C4.85786 16.5 1.5 13.1421 1.5 9M3.375 9H1.5M16.5 9H14.625M14.3088 14.3088L12.9785 12.9785M3.69122 14.3088L5.02286 12.9772M3.69122 3.75L4.99356 5.05234M14.3088 3.75L10.1249 7.875M10.5 9C10.5 9.82843 9.82843 10.5 9 10.5C8.17157 10.5 7.5 9.82843 7.5 9C7.5 8.17157 8.17157 7.5 9 7.5C9.82843 7.5 10.5 8.17157 10.5 9Z" stroke="white" stroke-linecap="round" stroke-linejoin="round"/>
</g>
</svg>
