<svg width="138" height="32" viewBox="0 0 138 32" fill="none" xmlns="http://www.w3.org/2000/svg">
<g id="Group 2516">
<path id="Subtract" fill-rule="evenodd" clip-rule="evenodd" d="M0 16C0 7.16344 7.16344 0 16 0H122C130.837 0 138 7.16344 138 16C138 24.8366 130.837 32 122 32H16C7.16344 32 0 24.8366 0 16ZM46.6721 20.1447C46.0641 20.1447 45.5241 20.0367 45.0521 19.8207C44.5801 19.6047 44.2121 19.2967 43.9481 18.8967C43.6841 18.4967 43.5481 18.0207 43.5401 17.4687H45.0641C45.0641 17.7487 45.1281 18.0007 45.2561 18.2247C45.3921 18.4407 45.5761 18.6127 45.8081 18.7407C46.0481 18.8687 46.3361 18.9327 46.6721 18.9327C46.9601 18.9327 47.2081 18.8887 47.4161 18.8007C47.6321 18.7047 47.7961 18.5727 47.9081 18.4047C48.0281 18.2287 48.0881 18.0247 48.0881 17.7927C48.0881 17.5287 48.0241 17.3127 47.8961 17.1447C47.7761 16.9687 47.6081 16.8207 47.3921 16.7007C47.1761 16.5807 46.9281 16.4767 46.6481 16.3887C46.3681 16.2927 46.0721 16.1927 45.7601 16.0887C45.0961 15.8647 44.5961 15.5807 44.2601 15.2367C43.9241 14.8847 43.7561 14.4167 43.7561 13.8327C43.7561 13.3447 43.8721 12.9247 44.1041 12.5727C44.3361 12.2207 44.6601 11.9487 45.0761 11.7567C45.5001 11.5567 45.9881 11.4567 46.5401 11.4567C47.1001 11.4567 47.5881 11.5567 48.0041 11.7567C48.4281 11.9567 48.7601 12.2367 49.0001 12.5967C49.2481 12.9487 49.3761 13.3727 49.3841 13.8687H47.8481C47.8401 13.6607 47.7841 13.4687 47.6801 13.2927C47.5761 13.1087 47.4241 12.9607 47.2241 12.8487C47.0321 12.7287 46.7961 12.6687 46.5161 12.6687C46.2761 12.6607 46.0601 12.7007 45.8681 12.7887C45.6841 12.8687 45.5361 12.9887 45.4241 13.1487C45.3201 13.3007 45.2681 13.4927 45.2681 13.7247C45.2681 13.9487 45.3161 14.1367 45.4121 14.2887C45.5161 14.4327 45.6641 14.5567 45.8561 14.6607C46.0481 14.7567 46.2721 14.8487 46.5281 14.9367C46.7841 15.0247 47.0641 15.1207 47.3681 15.2247C47.7841 15.3607 48.1601 15.5287 48.4961 15.7287C48.8401 15.9207 49.1121 16.1727 49.3121 16.4847C49.5121 16.7967 49.6121 17.2007 49.6121 17.6967C49.6121 18.1287 49.5001 18.5327 49.2761 18.9087C49.0521 19.2767 48.7241 19.5767 48.2921 19.8087C47.8601 20.0327 47.3201 20.1447 46.6721 20.1447ZM53.5923 20.0007C53.1843 20.0007 52.8283 19.9367 52.5243 19.8087C52.2283 19.6807 51.9963 19.4687 51.8283 19.1727C51.6603 18.8767 51.5763 18.4767 51.5763 17.9727V15.1647H50.5443V13.9527H51.5763L51.7443 12.3567H53.0163V13.9527H54.6603V15.1647H53.0163V17.9727C53.0163 18.2767 53.0803 18.4887 53.2083 18.6087C53.3443 18.7207 53.5683 18.7767 53.8803 18.7767H54.6243V20.0007H53.5923ZM58.6827 20.1447C58.1067 20.1447 57.5867 20.0127 57.1227 19.7487C56.6667 19.4767 56.3067 19.1047 56.0427 18.6327C55.7867 18.1527 55.6587 17.6047 55.6587 16.9887C55.6587 16.3567 55.7907 15.8047 56.0547 15.3327C56.3187 14.8527 56.6787 14.4807 57.1347 14.2167C57.5987 13.9447 58.1187 13.8087 58.6947 13.8087C59.2707 13.8087 59.7867 13.9447 60.2427 14.2167C60.7067 14.4807 61.0667 14.8487 61.3227 15.3207C61.5867 15.7927 61.7187 16.3447 61.7187 16.9767C61.7187 17.6087 61.5867 18.1607 61.3227 18.6327C61.0587 19.1047 60.6947 19.4767 60.2307 19.7487C59.7747 20.0127 59.2587 20.1447 58.6827 20.1447ZM58.6827 18.9087C58.9707 18.9087 59.2307 18.8367 59.4627 18.6927C59.7027 18.5487 59.8947 18.3327 60.0387 18.0447C60.1827 17.7567 60.2547 17.4007 60.2547 16.9767C60.2547 16.5527 60.1827 16.2007 60.0387 15.9207C59.9027 15.6327 59.7147 15.4167 59.4747 15.2727C59.2427 15.1287 58.9827 15.0567 58.6947 15.0567C58.4147 15.0567 58.1547 15.1287 57.9147 15.2727C57.6747 15.4167 57.4827 15.6327 57.3387 15.9207C57.1947 16.2007 57.1227 16.5527 57.1227 16.9767C57.1227 17.4007 57.1947 17.7567 57.3387 18.0447C57.4827 18.3327 57.6707 18.5487 57.9027 18.6927C58.1427 18.8367 58.4027 18.9087 58.6827 18.9087ZM63.1283 22.6407V13.9527H64.4123L64.5683 14.8287C64.6963 14.6527 64.8483 14.4887 65.0243 14.3367C65.2083 14.1767 65.4283 14.0487 65.6843 13.9527C65.9483 13.8567 66.2483 13.8087 66.5843 13.8087C67.1523 13.8087 67.6523 13.9487 68.0843 14.2287C68.5243 14.5087 68.8683 14.8887 69.1163 15.3687C69.3643 15.8407 69.4883 16.3807 69.4883 16.9887C69.4883 17.5967 69.3603 18.1407 69.1043 18.6207C68.8563 19.0927 68.5123 19.4647 68.0723 19.7367C67.6403 20.0087 67.1443 20.1447 66.5843 20.1447C66.1283 20.1447 65.7283 20.0607 65.3843 19.8927C65.0483 19.7167 64.7763 19.4687 64.5683 19.1487V22.6407H63.1283ZM66.2843 18.8967C66.6203 18.8967 66.9203 18.8167 67.1843 18.6567C67.4483 18.4967 67.6523 18.2727 67.7963 17.9847C67.9483 17.6967 68.0243 17.3647 68.0243 16.9887C68.0243 16.6047 67.9483 16.2687 67.7963 15.9807C67.6523 15.6927 67.4483 15.4687 67.1843 15.3087C66.9203 15.1487 66.6203 15.0687 66.2843 15.0687C65.9403 15.0687 65.6363 15.1487 65.3723 15.3087C65.1163 15.4687 64.9123 15.6927 64.7603 15.9807C64.6163 16.2687 64.5443 16.6007 64.5443 16.9767C64.5443 17.3607 64.6163 17.6967 64.7603 17.9847C64.9123 18.2647 65.1163 18.4887 65.3723 18.6567C65.6363 18.8167 65.9403 18.8967 66.2843 18.8967ZM76.6838 20.1447C76.0758 20.1447 75.5358 20.0367 75.0638 19.8207C74.5918 19.6047 74.2238 19.2967 73.9598 18.8967C73.6958 18.4967 73.5598 18.0207 73.5518 17.4687H75.0758C75.0758 17.7487 75.1398 18.0007 75.2678 18.2247C75.4038 18.4407 75.5878 18.6127 75.8198 18.7407C76.0598 18.8687 76.3478 18.9327 76.6838 18.9327C76.9718 18.9327 77.2198 18.8887 77.4278 18.8007C77.6438 18.7047 77.8078 18.5727 77.9198 18.4047C78.0398 18.2287 78.0998 18.0247 78.0998 17.7927C78.0998 17.5287 78.0358 17.3127 77.9078 17.1447C77.7878 16.9687 77.6198 16.8207 77.4038 16.7007C77.1878 16.5807 76.9398 16.4767 76.6598 16.3887C76.3798 16.2927 76.0838 16.1927 75.7718 16.0887C75.1078 15.8647 74.6078 15.5807 74.2718 15.2367C73.9358 14.8847 73.7678 14.4167 73.7678 13.8327C73.7678 13.3447 73.8838 12.9247 74.1158 12.5727C74.3478 12.2207 74.6718 11.9487 75.0878 11.7567C75.5118 11.5567 75.9998 11.4567 76.5518 11.4567C77.1118 11.4567 77.5998 11.5567 78.0158 11.7567C78.4398 11.9567 78.7718 12.2367 79.0118 12.5967C79.2598 12.9487 79.3878 13.3727 79.3958 13.8687H77.8598C77.8518 13.6607 77.7958 13.4687 77.6918 13.2927C77.5878 13.1087 77.4358 12.9607 77.2358 12.8487C77.0438 12.7287 76.8078 12.6687 76.5278 12.6687C76.2878 12.6607 76.0718 12.7007 75.8798 12.7887C75.6958 12.8687 75.5478 12.9887 75.4358 13.1487C75.3318 13.3007 75.2798 13.4927 75.2798 13.7247C75.2798 13.9487 75.3278 14.1367 75.4238 14.2887C75.5278 14.4327 75.6758 14.5567 75.8678 14.6607C76.0598 14.7567 76.2838 14.8487 76.5398 14.9367C76.7958 15.0247 77.0758 15.1207 77.3798 15.2247C77.7958 15.3607 78.1718 15.5287 78.5078 15.7287C78.8518 15.9207 79.1238 16.1727 79.3238 16.4847C79.5238 16.7967 79.6238 17.2007 79.6238 17.6967C79.6238 18.1287 79.5118 18.5327 79.2878 18.9087C79.0638 19.2767 78.7358 19.5767 78.3038 19.8087C77.8718 20.0327 77.3318 20.1447 76.6838 20.1447ZM80.976 22.6407V13.9527H82.26L82.416 14.8287C82.544 14.6527 82.696 14.4887 82.872 14.3367C83.056 14.1767 83.276 14.0487 83.532 13.9527C83.796 13.8567 84.096 13.8087 84.432 13.8087C85 13.8087 85.5 13.9487 85.932 14.2287C86.372 14.5087 86.716 14.8887 86.964 15.3687C87.212 15.8407 87.336 16.3807 87.336 16.9887C87.336 17.5967 87.208 18.1407 86.952 18.6207C86.704 19.0927 86.36 19.4647 85.92 19.7367C85.488 20.0087 84.992 20.1447 84.432 20.1447C83.976 20.1447 83.576 20.0607 83.232 19.8927C82.896 19.7167 82.624 19.4687 82.416 19.1487V22.6407H80.976ZM84.132 18.8967C84.468 18.8967 84.768 18.8167 85.032 18.6567C85.296 18.4967 85.5 18.2727 85.644 17.9847C85.796 17.6967 85.872 17.3647 85.872 16.9887C85.872 16.6047 85.796 16.2687 85.644 15.9807C85.5 15.6927 85.296 15.4687 85.032 15.3087C84.768 15.1487 84.468 15.0687 84.132 15.0687C83.788 15.0687 83.484 15.1487 83.22 15.3087C82.964 15.4687 82.76 15.6927 82.608 15.9807C82.464 16.2687 82.392 16.6007 82.392 16.9767C82.392 17.3607 82.464 17.6967 82.608 17.9847C82.76 18.2647 82.964 18.4887 83.22 18.6567C83.484 18.8167 83.788 18.8967 84.132 18.8967ZM91.5658 20.1447C90.9658 20.1447 90.4378 20.0167 89.9818 19.7607C89.5258 19.4967 89.1698 19.1287 88.9138 18.6567C88.6578 18.1847 88.5298 17.6407 88.5298 17.0247C88.5298 16.3847 88.6538 15.8247 88.9018 15.3447C89.1578 14.8647 89.5138 14.4887 89.9698 14.2167C90.4338 13.9447 90.9698 13.8087 91.5778 13.8087C92.1698 13.8087 92.6858 13.9407 93.1258 14.2047C93.5658 14.4687 93.9058 14.8247 94.1458 15.2727C94.3858 15.7127 94.5058 16.2087 94.5058 16.7607V17.0247C94.5058 17.1207 94.4978 17.2207 94.4818 17.3247H89.9505C89.9681 17.63 90.0345 17.898 90.1498 18.1287C90.2938 18.4007 90.4858 18.6087 90.7258 18.7527C90.9738 18.8887 91.2498 18.9567 91.5538 18.9567C91.8898 18.9567 92.1658 18.8847 92.3818 18.7407C92.6058 18.5967 92.7698 18.4047 92.8738 18.1647H94.3378C94.2258 18.5407 94.0418 18.8807 93.7858 19.1847C93.5298 19.4807 93.2138 19.7167 92.8378 19.8927C92.4618 20.0607 92.0378 20.1447 91.5658 20.1447ZM90.1618 15.8007C90.069 15.9708 90.0061 16.1708 89.9731 16.4007H93.0538C93.0378 15.9607 92.8898 15.6167 92.6098 15.3687C92.3298 15.1127 91.9818 14.9847 91.5658 14.9847C91.2698 14.9847 90.9978 15.0527 90.7498 15.1887C90.5018 15.3247 90.3058 15.5287 90.1618 15.8007ZM97.8514 20.1447C97.3554 20.1447 96.9434 20.0607 96.6154 19.8927C96.2874 19.7247 96.0434 19.5007 95.8834 19.2207C95.7234 18.9407 95.6434 18.6367 95.6434 18.3087C95.6434 17.9247 95.7394 17.5927 95.9314 17.3127C96.1314 17.0327 96.4234 16.8167 96.8074 16.6647C97.1914 16.5047 97.6634 16.4247 98.2234 16.4247H99.7474C99.7474 16.1047 99.7034 15.8407 99.6154 15.6327C99.5274 15.4167 99.3914 15.2567 99.2074 15.1527C99.0234 15.0487 98.7874 14.9967 98.4994 14.9967C98.1714 14.9967 97.8914 15.0727 97.6594 15.2247C97.4274 15.3687 97.2834 15.5927 97.2274 15.8967H95.8114C95.8594 15.4647 96.0034 15.0967 96.2434 14.7927C96.4834 14.4807 96.7994 14.2407 97.1914 14.0727C97.5914 13.8967 98.0274 13.8087 98.4994 13.8087C99.0674 13.8087 99.5514 13.9087 99.9514 14.1087C100.351 14.3007 100.655 14.5807 100.863 14.9487C101.079 15.3087 101.187 15.7447 101.187 16.2567V20.0007H99.9634L99.8194 19.0287C99.7394 19.1887 99.6354 19.3367 99.5074 19.4727C99.3874 19.6087 99.2474 19.7287 99.0874 19.8327C98.9274 19.9287 98.7434 20.0047 98.5354 20.0607C98.3354 20.1167 98.1074 20.1447 97.8514 20.1447ZM98.1754 19.0047C98.4074 19.0047 98.6114 18.9647 98.7874 18.8847C98.9714 18.7967 99.1274 18.6767 99.2554 18.5247C99.3914 18.3647 99.4954 18.1887 99.5674 17.9967C99.6394 17.8047 99.6874 17.6007 99.7114 17.3847V17.3607H98.3794C98.0994 17.3607 97.8674 17.3967 97.6834 17.4687C97.4994 17.5407 97.3674 17.6407 97.2874 17.7687C97.2074 17.8887 97.1674 18.0327 97.1674 18.2007C97.1674 18.3687 97.2074 18.5127 97.2874 18.6327C97.3674 18.7527 97.4834 18.8447 97.6354 18.9087C97.7874 18.9727 97.9674 19.0047 98.1754 19.0047ZM106.626 20.0007L104.166 16.956V20.0007H102.726V11.3607H104.166V16.4424L106.35 13.9527H108.066L105.572 16.7272L108.426 20.0007H106.626ZM110.174 12.9927C109.91 12.9927 109.69 12.9127 109.514 12.7527C109.346 12.5847 109.262 12.3807 109.262 12.1407C109.262 11.8927 109.346 11.6927 109.514 11.5407C109.69 11.3807 109.91 11.3007 110.174 11.3007C110.438 11.3007 110.654 11.3807 110.822 11.5407C110.998 11.6927 111.086 11.8927 111.086 12.1407C111.086 12.3807 110.998 12.5847 110.822 12.7527C110.654 12.9127 110.438 12.9927 110.174 12.9927ZM112.558 13.9527H113.83L113.938 14.9607C114.122 14.6087 114.386 14.3287 114.73 14.1207C115.074 13.9127 115.482 13.8087 115.954 13.8087C116.442 13.8087 116.858 13.9127 117.202 14.1207C117.546 14.3207 117.81 14.6167 117.994 15.0087C118.186 15.4007 118.282 15.8887 118.282 16.4727V20.0007H116.842V16.6047C116.842 16.1007 116.73 15.7127 116.506 15.4407C116.282 15.1687 115.95 15.0327 115.51 15.0327C115.222 15.0327 114.962 15.1007 114.73 15.2367C114.506 15.3727 114.326 15.5727 114.19 15.8367C114.062 16.0927 113.998 16.4047 113.998 16.7727V20.0007H112.558V13.9527ZM122.344 22.7847C121.776 22.7847 121.276 22.7127 120.844 22.5687C120.42 22.4327 120.088 22.2207 119.848 21.9327C119.616 21.6527 119.5 21.3007 119.5 20.8767C119.5 20.6287 119.56 20.3847 119.68 20.1447C119.808 19.9127 119.996 19.6967 120.244 19.4967C120.259 19.4847 120.274 19.4729 120.289 19.4612C120.166 19.4081 120.055 19.3519 119.956 19.2927C119.796 19.1887 119.664 19.0847 119.56 18.9807V18.7047L120.613 17.6021C120.451 17.4579 120.316 17.2934 120.208 17.1087C120.016 16.7727 119.92 16.4047 119.92 16.0047C119.92 15.5967 120.016 15.2287 120.208 14.9007C120.4 14.5727 120.676 14.3087 121.036 14.1087C121.404 13.9087 121.84 13.8087 122.344 13.8087C122.693 13.8087 123.008 13.8567 123.288 13.9527H125.548V14.8647L124.487 14.9338C124.667 15.2534 124.756 15.6104 124.756 16.0047C124.756 16.4047 124.66 16.7727 124.468 17.1087C124.276 17.4367 124 17.7007 123.64 17.9007C123.28 18.0927 122.848 18.1887 122.344 18.1887C122.047 18.1887 121.773 18.1552 121.523 18.0884L121.049 18.551L121.084 18.5727C121.172 18.6207 121.28 18.6647 121.408 18.7047C121.544 18.7367 121.72 18.7687 121.936 18.8007C122.152 18.8327 122.432 18.8647 122.776 18.8967C123.312 18.9367 123.748 19.0327 124.084 19.1847C124.42 19.3367 124.668 19.5407 124.828 19.7967C124.988 20.0527 125.068 20.3607 125.068 20.7207C125.068 21.0727 124.968 21.4047 124.768 21.7167C124.576 22.0287 124.28 22.2847 123.88 22.4847C123.48 22.6847 122.968 22.7847 122.344 22.7847ZM122.476 19.9047C122.116 19.8775 121.794 19.8416 121.508 19.7972C121.303 19.9005 121.15 20.0163 121.048 20.1447C120.896 20.3367 120.82 20.5327 120.82 20.7327C120.82 20.9407 120.884 21.1127 121.012 21.2487C121.148 21.3927 121.328 21.5007 121.552 21.5727C121.784 21.6447 122.044 21.6807 122.332 21.6807C122.612 21.6807 122.856 21.6407 123.064 21.5607C123.272 21.4887 123.432 21.3847 123.544 21.2487C123.664 21.1127 123.724 20.9487 123.724 20.7567C123.724 20.5167 123.64 20.3207 123.472 20.1687C123.304 20.0247 122.972 19.9367 122.476 19.9047ZM109.454 20.0007V13.9527H110.894V20.0007H109.454ZM122.344 17.0727C122.688 17.0727 122.964 16.9807 123.172 16.7967C123.38 16.6127 123.484 16.3487 123.484 16.0047C123.484 15.6607 123.38 15.4007 123.172 15.2247C122.964 15.0407 122.688 14.9487 122.344 14.9487C122 14.9487 121.72 15.0407 121.504 15.2247C121.288 15.4007 121.18 15.6607 121.18 16.0047C121.18 16.3487 121.288 16.6127 121.504 16.7967C121.72 16.9807 122 17.0727 122.344 17.0727ZM20.5025 12.5576L23.2501 9.81001V22.1887L20.5025 19.4411L20.4714 19.41C20.3503 19.2883 20.2122 19.1496 20.0437 19.0464C19.8971 18.9566 19.7372 18.8903 19.57 18.8502C19.3779 18.8041 19.1822 18.8045 19.0105 18.8048L18.9665 18.8049H17.4223C17.161 18.8049 17.0101 18.8043 16.8995 18.7953C16.853 18.7915 16.8277 18.787 16.8167 18.7846C16.7978 18.7731 16.7819 18.7572 16.7703 18.7383C16.768 18.7272 16.7635 18.702 16.7597 18.6554C16.7506 18.5448 16.7501 18.394 16.7501 18.1327V13.866C16.7501 13.6047 16.7506 13.4539 16.7597 13.3433C16.7635 13.2967 16.768 13.2715 16.7703 13.2604C16.7819 13.2415 16.7978 13.2256 16.8167 13.2141C16.8277 13.2117 16.853 13.2072 16.8995 13.2034C17.0101 13.1944 17.161 13.1938 17.4223 13.1938H18.9665L19.0105 13.1939C19.1822 13.1942 19.3779 13.1946 19.57 13.1485C19.7372 13.1084 19.8971 13.0421 20.0437 12.9523C20.2122 12.8491 20.3503 12.7103 20.4714 12.5887L20.5025 12.5576ZM24.4639 8.2966C24.2156 8.00586 23.8431 7.85157 23.4619 7.88157C23.1276 7.90788 22.8817 8.10085 22.7535 8.20824C22.6119 8.32672 22.4489 8.48978 22.2768 8.66198L22.2558 8.68296L19.4418 11.4969C19.3604 11.5784 19.3165 11.6219 19.2825 11.6531C19.2684 11.6659 19.2605 11.6724 19.2571 11.675C19.2464 11.6812 19.235 11.686 19.2231 11.6891C19.2188 11.6896 19.2086 11.6906 19.1896 11.6915C19.1435 11.6936 19.0817 11.6938 18.9665 11.6938H17.4223L17.397 11.6938C17.1699 11.6938 16.9566 11.6938 16.7774 11.7084C16.5828 11.7243 16.3633 11.7611 16.1449 11.8724C15.8365 12.0295 15.5858 12.2803 15.4287 12.5886C15.3174 12.8071 15.2806 13.0265 15.2647 13.2211C15.25 13.4003 15.25 13.6136 15.2501 13.8407L15.2501 13.866V18.1327L15.2501 18.158C15.25 18.3851 15.25 18.5984 15.2647 18.7776C15.2806 18.9722 15.3174 19.1916 15.4287 19.4101C15.5858 19.7184 15.8365 19.9692 16.1449 20.1263C16.3633 20.2376 16.5828 20.2744 16.7774 20.2903C16.9566 20.3049 17.1699 20.3049 17.3969 20.3049H17.397L17.4223 20.3049H18.9665C19.0817 20.3049 19.1435 20.3051 19.1896 20.3072C19.2086 20.3081 19.2188 20.3091 19.2231 20.3096C19.235 20.3127 19.2464 20.3175 19.2571 20.3237C19.2605 20.3263 19.2684 20.3328 19.2825 20.3456C19.3165 20.3768 19.3604 20.4203 19.4418 20.5018L22.2558 23.3157L22.2768 23.3367C22.4489 23.5089 22.6119 23.672 22.7535 23.7905C22.8817 23.8979 23.1276 24.0908 23.4619 24.1171C23.8431 24.1471 24.2156 23.9928 24.4639 23.7021C24.6816 23.4471 24.719 23.1368 24.7338 22.9702C24.7501 22.7863 24.7501 22.5557 24.7501 22.3122L24.7501 22.2826V9.71612L24.7501 9.68646C24.7501 9.44295 24.7501 9.21238 24.7338 9.02852C24.719 8.86188 24.6816 8.55155 24.4639 8.2966ZM28.9748 12.8024C28.6819 12.5095 28.2071 12.5095 27.9142 12.8024C27.6213 13.0952 27.6213 13.5701 27.9142 13.863L30.0505 15.9994L27.9142 18.1357C27.6213 18.4286 27.6213 18.9035 27.9142 19.1963C28.2071 19.4892 28.6819 19.4892 28.9748 19.1963L31.1112 17.06L33.2475 19.1963C33.5404 19.4892 34.0153 19.4892 34.3082 19.1963C34.6011 18.9035 34.6011 18.4286 34.3082 18.1357L32.1718 15.9994L34.3082 13.863C34.6011 13.5701 34.6011 13.0952 34.3082 12.8024C34.0153 12.5095 33.5404 12.5095 33.2475 12.8024L31.1112 14.9387L28.9748 12.8024Z" fill="white" fill-opacity="0.5"/>
</g>
</svg>
