<svg width="28" height="28" viewBox="0 0 28 28" fill="none" xmlns="http://www.w3.org/2000/svg">
<g id="send-03">
<path id="Icon" d="M12.251 14.0002H5.83432M5.73555 14.3403L3.01148 22.4775C2.79747 23.1167 2.69047 23.4364 2.76726 23.6332C2.83395 23.8041 2.97717 23.9337 3.1539 23.9831C3.35741 24.0399 3.66479 23.9015 4.27954 23.6249L23.7763 14.8514C24.3763 14.5814 24.6763 14.4463 24.7691 14.2588C24.8496 14.0958 24.8496 13.9047 24.7691 13.7417C24.6763 13.5542 24.3763 13.4191 23.7763 13.1491L4.27275 4.37259C3.65984 4.09678 3.35339 3.95888 3.15009 4.01545C2.97352 4.06458 2.83031 4.19383 2.7634 4.36445C2.68635 4.56091 2.79221 4.87985 3.00392 5.51773L5.73631 13.75C5.77268 13.8596 5.79086 13.9144 5.79804 13.9704C5.8044 14.0201 5.80434 14.0704 5.79784 14.1201C5.79052 14.1761 5.7722 14.2309 5.73555 14.3403Z" stroke="#2A7CC7" stroke-width="2" stroke-linecap="round" stroke-linejoin="round"/>
</g>
</svg>
