<svg width="31" height="31" viewBox="0 0 31 31" fill="none" xmlns="http://www.w3.org/2000/svg">
<g id="send-03">
<path id="Icon" d="M13.3364 15.2409H6.35094M6.24342 15.6111L3.27788 24.4696C3.04491 25.1655 2.92842 25.5134 3.01202 25.7277C3.08462 25.9138 3.24053 26.0549 3.43293 26.1086C3.65448 26.1704 3.9891 26.0198 4.65835 25.7187L25.8833 16.1675C26.5365 15.8735 26.8631 15.7265 26.9641 15.5224C27.0518 15.345 27.0518 15.1368 26.9641 14.9594C26.8631 14.7553 26.5365 14.6083 25.8833 14.3143L4.65095 4.75985C3.98372 4.4596 3.6501 4.30947 3.42878 4.37105C3.23656 4.42454 3.08066 4.56524 3.00781 4.75098C2.92393 4.96486 3.03917 5.31207 3.26966 6.00649L6.24425 14.9685C6.28383 15.0878 6.30363 15.1474 6.31144 15.2084C6.31837 15.2625 6.3183 15.3173 6.31123 15.3714C6.30326 15.4324 6.28331 15.492 6.24342 15.6111Z" stroke="#BDBDBD" stroke-width="2" stroke-linecap="round" stroke-linejoin="round"/>
</g>
</svg>
