<svg width="60" height="60" viewBox="0 0 60 60" fill="none" xmlns="http://www.w3.org/2000/svg">
<path d="M0 4C0 1.79086 1.79086 0 4 0H56C58.2091 0 60 1.79086 60 4V55.6385C60 57.8477 58.2091 59.6385 56 59.6385H4C1.79086 59.6385 0 57.8477 0 55.6385V4Z" fill="white" fill-opacity="0.2"/>
<path d="M28.3366 30.2409H21.3512M21.2437 30.6111L18.2781 39.4696C18.0452 40.1655 17.9287 40.5134 18.0123 40.7277C18.0849 40.9138 18.2408 41.0549 18.4332 41.1086C18.6547 41.1704 18.9893 41.0198 19.6586 40.7187L40.8835 31.1675C41.5367 30.8735 41.8634 30.7265 41.9643 30.5224C42.052 30.345 42.052 30.1368 41.9643 29.9594C41.8634 29.7553 41.5367 29.6083 40.8835 29.3143L19.6512 19.7598C18.984 19.4596 18.6503 19.3095 18.429 19.3711C18.2368 19.4245 18.0809 19.5652 18.0081 19.751C17.9242 19.9649 18.0394 20.3121 18.2699 21.0065L21.2445 29.9685C21.2841 30.0878 21.3039 30.1474 21.3117 30.2084C21.3186 30.2625 21.3185 30.3173 21.3115 30.3714C21.3035 30.4324 21.2836 30.492 21.2437 30.6111Z" stroke="white" stroke-width="2" stroke-linecap="round" stroke-linejoin="round"/>
</svg>
