<svg width="25" height="24" viewBox="0 0 25 24" fill="none" xmlns="http://www.w3.org/2000/svg">
<g id="icon-email">
<path id="Icon" d="M2.11426 7L10.2792 12.7154C10.9403 13.1783 11.2709 13.4097 11.6305 13.4993C11.9482 13.5785 12.2804 13.5785 12.598 13.4993C12.9576 13.4097 13.2882 13.1783 13.9493 12.7154L22.1143 7M6.91426 20H17.3143C18.9944 20 19.8345 20 20.4762 19.673C21.0407 19.3854 21.4997 18.9265 21.7873 18.362C22.1143 17.7202 22.1143 16.8802 22.1143 15.2V8.8C22.1143 7.11984 22.1143 6.27976 21.7873 5.63803C21.4997 5.07354 21.0407 4.6146 20.4762 4.32698C19.8345 4 18.9944 4 17.3143 4H6.91426C5.2341 4 4.39402 4 3.75229 4.32698C3.1878 4.6146 2.72886 5.07354 2.44124 5.63803C2.11426 6.27976 2.11426 7.11984 2.11426 8.8V15.2C2.11426 16.8802 2.11426 17.7202 2.44124 18.362C2.72886 18.9265 3.1878 19.3854 3.75229 19.673C4.39402 20 5.2341 20 6.91426 20Z" stroke="#2A7CC7" stroke-width="2" stroke-linecap="round" stroke-linejoin="round"/>
</g>
</svg>
