<svg width="25" height="24" viewBox="0 0 25 24" fill="none" xmlns="http://www.w3.org/2000/svg">
<g id="icon-password">
<path id="Icon" d="M22.1143 11V8.2C22.1143 7.0799 22.1143 6.51984 21.8963 6.09202C21.7045 5.71569 21.3986 5.40973 21.0222 5.21799C20.5944 5 20.0344 5 18.9143 5H5.31426C4.19415 5 3.6341 5 3.20628 5.21799C2.82995 5.40973 2.52399 5.71569 2.33224 6.09202C2.11426 6.51984 2.11426 7.0799 2.11426 8.2V11.8C2.11426 12.9201 2.11426 13.4802 2.33224 13.908C2.52399 14.2843 2.82995 14.5903 3.20628 14.782C3.6341 15 4.19415 15 5.31426 15H11.1143M12.1143 10H12.1193M17.1143 10H17.1193M7.11426 10H7.11926M19.3643 17V15.25C19.3643 14.2835 18.5808 13.5 17.6143 13.5C16.6478 13.5 15.8643 14.2835 15.8643 15.25V17M12.3643 10C12.3643 10.1381 12.2523 10.25 12.1143 10.25C11.9762 10.25 11.8643 10.1381 11.8643 10C11.8643 9.86193 11.9762 9.75 12.1143 9.75C12.2523 9.75 12.3643 9.86193 12.3643 10ZM17.3643 10C17.3643 10.1381 17.2523 10.25 17.1143 10.25C16.9762 10.25 16.8643 10.1381 16.8643 10C16.8643 9.86193 16.9762 9.75 17.1143 9.75C17.2523 9.75 17.3643 9.86193 17.3643 10ZM7.36426 10C7.36426 10.1381 7.25233 10.25 7.11426 10.25C6.97619 10.25 6.86426 10.1381 6.86426 10C6.86426 9.86193 6.97619 9.75 7.11426 9.75C7.25233 9.75 7.36426 9.86193 7.36426 10ZM15.7143 21H19.5143C20.0743 21 20.3543 21 20.5682 20.891C20.7564 20.7951 20.9094 20.6422 21.0053 20.454C21.1143 20.2401 21.1143 19.9601 21.1143 19.4V18.6C21.1143 18.0399 21.1143 17.7599 21.0053 17.546C20.9094 17.3578 20.7564 17.2049 20.5682 17.109C20.3543 17 20.0743 17 19.5143 17H15.7143C15.1542 17 14.8742 17 14.6603 17.109C14.4721 17.2049 14.3191 17.3578 14.2233 17.546C14.1143 17.7599 14.1143 18.0399 14.1143 18.6V19.4C14.1143 19.9601 14.1143 20.2401 14.2233 20.454C14.3191 20.6422 14.4721 20.7951 14.6603 20.891C14.8742 21 15.1542 21 15.7143 21Z" stroke="#2A7CC7" stroke-width="2" stroke-linecap="round" stroke-linejoin="round"/>
</g>
</svg>
