<svg width="33" height="32" viewBox="0 0 33 32" fill="none" xmlns="http://www.w3.org/2000/svg">
<g id="pause">
<path id="Vector" d="M11.9334 5.33398H10.6001C9.49553 5.33398 8.6001 6.22942 8.6001 7.33399V24.6673C8.6001 25.7719 9.49553 26.6673 10.6001 26.6673H11.9334C13.038 26.6673 13.9334 25.7719 13.9334 24.6673V7.33398C13.9334 6.22941 13.038 5.33398 11.9334 5.33398Z" fill="#3C403D" stroke="#3C403D" stroke-linecap="round" stroke-linejoin="round"/>
<path id="Vector_2" d="M22.6002 5.33398H21.2668C20.1623 5.33398 19.2668 6.22942 19.2668 7.33399V24.6673C19.2668 25.7719 20.1623 26.6673 21.2668 26.6673H22.6002C23.7047 26.6673 24.6002 25.7719 24.6002 24.6673V7.33398C24.6002 6.22941 23.7047 5.33398 22.6002 5.33398Z" fill="#3C403D" stroke="#3C403D" stroke-linecap="round" stroke-linejoin="round"/>
</g>
</svg>
